<svg xmlns:svg="http://www.w3.org/2000/svg" xmlns="http://www.w3.org/2000/svg" version="1.1" width="600" height="849.89"><g transform="translate(-209.32562,77.669905)"><path d="m277.3 767.02c-14.98-4.6-20.64-12-17.72-23.17 2.54-9.72 25.17-17.24 60.09-19.96 17.64-1.37 37.91-4.63 45.06-7.23 37.25-13.55 73.66-41.34 82.79-63.19 2.41-5.76 7-43.8 10.86-89.96 6.17-73.74 6.31-80.39 1.83-85.34-2.67-2.95-24.66-15.27-48.86-27.38C372.66 431.42 364.58 426.03 344.21 405.96 323.2 385.25 319.73 380.09 306.76 350.13 290.93 313.57 263.72 233.31 255.45 198.76 250.49 178.04 248.8 175.19 231.39 158.24 217.33 144.55 212.14 137.2 210.58 128.75c-3.75-20.26 0.64-32.42 17.27-47.85l15.19-14.09-2.15-61.02c-2.09-59.28-1.97-61.26 4.21-69.11 3.5-4.45 11.36-9.47 17.48-11.17 15.26-4.24 478.25-4.24 493.5 0 6.12 1.7 14.01 6.76 17.55 11.24 6.25 7.92 6.36 9.72 4.15 63.68C776.53 30.97 775.65 58.52 775.84 61.64c0.18 3.12 7.04 11.9 15.25 19.51 16.35 15.16 20.73 27.44 17 47.6-1.57 8.46-6.76 15.81-20.92 29.59-17.48 17.02-19.22 19.92-24.18 40.52-8.57 35.54-35.54 115.43-51.07 151.26-12.98 29.96-16.46 35.14-37.47 55.83-20.37 20.07-28.45 25.46-67.16 44.83-24.2 12.11-46.19 24.43-48.86 27.38-4.48 4.95-4.33 11.63 1.84 85.74 3.76 45.14 8.48 84.69 10.77 90.21 8.72 21.04 46 49.15 82.88 62.51 7.15 2.59 27.64 5.93 45.53 7.43 35.26 2.95 57.12 10.2 59.62 19.78 3.01 11.52-2.67 18.5-19.01 23.35-22.89 6.8-440.59 6.64-462.77-0.18z" fill="#000"/></g></svg>
