<svg xmlns:svg="http://www.w3.org/2000/svg" xmlns="http://www.w3.org/2000/svg" version="1.1" width="600" height="470.4"><g transform="translate(-74.617828,-93.966166)"><path d="M227.5 561.8C207.2 558.4 79.9 529.3 76.6 527.2c-4.5-2.8 0.6-6.4 11.9-8.5 10-1.9 82.2-20.3 112.5-28.7 13.2-3.7 19-12.1 14.4-20.8-2.7-5-66.3-61-123.9-109-17.4-14.5-21-20.2-12.7-20.2 2.5 0 41.6 15 86.9 33.3 45.3 18.3 84.8 32.8 87.8 32.2 12.3-2.3 8.1-17.7-30.5-112.9-36.7-90.4-42.6-108.8-33.4-103.6 2.4 1.3 33.4 41.2 69.1 88.7 65 86.6 70.8 92.6 79.5 82 2.1-2.5 9.1-56.1 16.8-129.5 13.5-127.8 14.7-136.3 19.5-136.3 4.3 0 5.3 6.6 19.2 137.7 13.7 129.3 15 135.3 27.7 131.2 3.1-1 35.2-41 71.3-88.8 36.1-47.9 66.7-87 68.2-87 5.9 0 0.9 15-33.7 100.7-20 49.5-37.5 93.8-38.9 98.6-3.2 10.3 1 19.9 8.7 19.9 2.9 0 40.4-14.4 83.2-31.9 77.1-31.6 94.3-37.4 94.3-32 0 1.5-20.5 20.3-45.6 41.6-99.3 84.5-101.3 86.5-95.6 97.1 3.6 6.8 6 7.6 78.2 25.6 66.5 16.7 64.8 16.1 61.3 19.5-4.1 3.9-104.2 26.8-163.5 37.4-14.6 2.6-16.4-1.3-16.4-36.4-0.1-26.7-1.3-35.4-7-49.7-9.7-24.3-34.1-51.4-59.9-62.9-34.8-15.5-73.6-14.5-103.1 0-47.3 23.3-71.4 66.2-67.4 119.9 1.7 22.4 1.2 24.7-4 27.8-8.1 4.7-17.2 0.8-24.2-0.3z" fill="#000"/></g></svg>
