<svg xmlns:svg="http://www.w3.org/2000/svg" xmlns="http://www.w3.org/2000/svg" version="1.1" width="600" height="798.3"><g transform="translate(-126.2445,-111.90626)"><path d="m371.6 908.6c-1-1-0.9-4 0.1-6.8 1-2.7 39.2-63.7 84.8-135.5 45.6-71.8 84.6-133.7 86.6-137.5 5.9-11 3-25.3-6-30.3-7.1-4-24.2-1.8-193.6 24.8-102.2 16-189.3 29.1-193.7 29-12.6-0.1-23.7-10.8-23.7-22.8 0-12.8 13.7-39.3 96.3-186.1 76.1-135.3 74.8-130 34.3-138.4-13.3-2.7-18.9-12.1-15.5-25.7 2.9-11.7 79.5-137.5 91.1-149.7 5.7-6 15.4-12.4 21.7-14.3 14.4-4.3 326.3-4.8 337.5-0.6 11.1 4.2 14.8 13 10.2 23.8-2.1 4.9-78.1 86-168.8 180.3-90.8 94.3-166.7 174.5-168.7 178.4-3 5.7-2.9 8.1 0.4 12.6 3.9 5.4 8.1 4.8 111.7-16.1 59.2-11.9 112.7-21.7 118.9-21.7 14.9 0 21 6.6 29.3 31.9 15.5 47.1 20.5 50.8 63.6 47.7 32-2.3 40.7 0.9 37.5 13.8-1 4-25.2 30.1-53.7 58.1-28.5 27.9-89 87.4-134.4 132-162.2 159.6-160.6 158.2-165.9 152.9z" fill="#000"/></g></svg>
