<svg xmlns:svg="http://www.w3.org/2000/svg" xmlns="http://www.w3.org/2000/svg" version="1.1" width="600" height="470.4"><g transform="translate(-109.58004,-73.095985)"><path d="M328.6 541.7C246.5 533.8 165.8 512.7 132.1 490.3 96.6 466.9 102.1 442.4 155.3 386c47.8-50.6 69.8-93 100.8-194.3 20.4-66.6 39.2-108.4 51.9-115.5 19.6-10.9 33.2 4.9 59.2 68.9 27.6 68.1 51.3 109.4 80.5 140.5 8.8 9.4 17.4 15.8 21.2 15.8 7.5 0 18.4-13.1 38.1-45.5 15.9-26.2 28.1-34.5 46.6-31.6 17.1 2.7 30.1 19.7 45.3 59.6 7.1 18.7 17.4 42.8 22.8 53.6 10.1 20.2 35.7 57 39.7 57.1 4.6 0.1 39.1 34.8 43.9 44.1 14.4 28.1-6.9 53-61.5 71.6-65.6 22.4-124.9 31.4-217.5 32.9-38 0.6-81.9-0.1-97.6-1.6z" fill="#000"/></g></svg>
