<svg xmlns:svg="http://www.w3.org/2000/svg" xmlns="http://www.w3.org/2000/svg" version="1.1" width="600" height="1204.16"><defs><clipPath><path d="M0 300 147 300 147 0 0 0 0 300z"/></clipPath></defs><g transform="translate(-128.125,398.84217)"><g transform="matrix(4.0816327,0,0,-4.0816327,128.125,815.48356)"><g clip-path="url(#clipPath3783)"><g transform="translate(145.458,184.2598)"><path d="m0 0c-1.25 32.73-4.06 45.16-5.93 45.16-1.89 0-2.49-18.13-4.98-34.15-2.49-15.98-6.87-34.11-6.87-34.11l-11.2 4.27c0 0-3.14 23.13-4.38 50.85-1.22 27.72-2.16 51.93-5.63 51.93-3.38 0.03-4.03-22.76-5.28-52.3-1.25-29.52-5.6-45.86-5.6-45.86l-10.28 1.43c0 0-4.98 25.6-6.85 103.81-0.43 18.51-4.95 22.22-4.95 22.22 0 0-4.52-3.71-4.95-22.22-1.87-78.2-6.87-103.81-6.87-103.81l-10.26-1.43c0 0-4.38 16.35-5.63 45.87-1.25 29.53-1.87 52.33-5.28 52.3-3.44 0-4.39-24.21-5.66-51.93-1.22-27.72-4.33-50.85-4.33-50.85l-11.2-4.27c0 0-4.38 18.13-6.87 34.11-2.49 16.02-3.11 34.15-4.98 34.15-1.87 0-4.68-12.43-5.93-45.16-1.25-32.69-1.54-39.08-1.54-39.08 0 0 36.78-15.67 51.09-56.22 14.34-40.53 17.97-75.72 18.08-79.63 0.19-6.06 4.33-6.84 4.33-6.84 0 0 3.6 0.77 4.33 6.84 0.46 3.88 3.73 39.1 18.08 79.63 14.32 40.55 51.1 56.22 51.1 56.22 0 0-0.3 6.39-1.54 39.08" style="fill-opacity:1;fill-rule:nonzero;fill:#000"/></g></g></g></g></svg>
