<svg xmlns:svg="http://www.w3.org/2000/svg" xmlns="http://www.w3.org/2000/svg" version="1.1" width="600" height="758.45"><g transform="translate(-248.75759,103.7998)"><path d="m549.36 651.16c-7.26-3.31-9.76-6.38-9.76-12.03 0-9.64 8.09-14.82 32.81-21.04 10.62-2.67 21.09-6.33 23.27-8.15 6.81-5.65 4.5-16.6-5.24-24.79-23.1-19.44-67.63-21.57-115.41-5.52-36.95 12.41-52.51 14.06-79.63 8.47-34.65-7.14-67.84-25.04-93.95-50.65-26.21-25.71-39.07-47.21-47.17-78.89-13.78-53.88-1.31-108.99 31.84-140.75 22.18-21.26 63.33-33.24 73.22-21.33 3.04 3.66 1.38 5.78-9.82 12.54-38.98 23.54-42.45 77.1-7.39 114.16 29.42 31.11 66.36 43.04 133.33 43.08 77.97 0.04 108.53 6.47 138.17 29.07 15.92 12.14 33.35 35.33 37.52 49.92 5.02 17.57 7.82 20.68 15.12 16.77 9.13-4.89 17.31-26.03 17.38-44.95 0.17-43.53-29.41-86.81-73.86-108.05-17.37-8.3-26.88-10.32-98.18-20.88-23.05-3.41-33.23-7.91-48.71-21.5-11.79-10.35-19.41-22.99-19.41-32.2 0-8.91 3.14-9.48 23.07-4.13 14.86 3.98 19.78 4.2 27.01 1.21 13.29-5.51 20.37-19.68 20.42-40.94 0.11-42.39-35.19-71.21-114.04-93.12C356.52 185.39 317.73 156.04 301.55 123 284.34 87.86 279.3 39.54 288.96 2.43 306.88-66.38 371.03-108.5 450.08-103.38c35.58 2.31 62.69 13.97 58.74 25.28-0.41 1.18-14.26 2.34-30.78 2.57-19.89 0.27-34.59 2.12-43.54 5.47-43.64 16.33-61.94 50.84-49.68 93.65 7.34 25.6 28.67 44.99 77.06 70.04 48.43 25.07 50.03 26.21 89.59 64.17 37.99 36.46 51.66 44.9 72.64 44.9 48.48 0 64.72-58.87 28.19-102.15C642.01 88.36 633.87 84.01 592.15 68.44 565.02 58.32 558.95 54.94 558.16 49.49c-1.88-12.96 20-15.89 58.89-7.87 45.31 9.34 94.9 38.51 137.35 80.8 40.53 40.37 65.36 84.3 80.84 143.04 35.48 134.64-0.27 268.71-90.85 340.65-22.29 17.7-59.43 35.45-87.68 41.9-31.37 7.16-94.46 9-107.35 3.14z" fill="#000"/></g></svg>
